<?xml version="1.0" encoding="UTF-8"?><!DOCTYPE svg PUBLIC "-//W3C//DTD SVG 1.1//EN" "http://www.w3.org/Graphics/SVG/1.1/DTD/svg11.dtd"><svg xmlns="http://www.w3.org/2000/svg" xmlns:xlink="http://www.w3.org/1999/xlink"><symbol id="icon-facebook" viewBox="0 0 24 24">
    <path d="M24 12c0-6.626-5.374-12-12-12S0 5.374 0 12s5.374 12 12 12l.21-.003v-9.341H9.634V11.65h2.578v-2.21c0-2.565 1.565-3.96 3.853-3.96 1.095 0 2.037.081 2.311.117v2.68h-1.577c-1.245 0-1.486.592-1.486 1.46v1.913h2.976l-.388 3.005h-2.588v8.88C20.328 22.098 24 17.477 24 12z"/>
</symbol><symbol id="icon-instagram" viewBox="0 0 24 24">
    <path d="M14.297 12a2.297 2.297 0 1 1-4.594 0 2.297 2.297 0 0 1 4.594 0z"/>
    <path d="M17.372 7.936c-.11-.299-.287-.57-.516-.792a2.133 2.133 0 0 0-.792-.516c-.243-.094-.608-.206-1.28-.237-.726-.033-.944-.04-2.784-.04-1.84 0-2.058.007-2.784.04-.672.03-1.037.143-1.28.237-.3.11-.57.287-.792.516a2.136 2.136 0 0 0-.516.792c-.094.243-.206.608-.237 1.28-.033.726-.04.944-.04 2.784 0 1.84.007 2.058.04 2.785.03.671.143 1.036.237 1.28.11.298.287.57.516.791.222.23.493.405.792.516.243.094.608.207 1.28.237.726.033.944.04 2.784.04 1.84 0 2.058-.007 2.784-.04.672-.03 1.037-.143 1.28-.237a2.282 2.282 0 0 0 1.308-1.308c.094-.243.206-.607.237-1.28.033-.726.04-.944.04-2.784 0-1.84-.007-2.058-.04-2.784-.03-.672-.143-1.037-.237-1.28zM12 15.538a3.538 3.538 0 1 1 0-7.076 3.538 3.538 0 0 1 0 7.076zm3.678-6.39a.827.827 0 1 1 0-1.653.827.827 0 0 1 0 1.654z"/>
    <path d="M12 0C5.374 0 0 5.374 0 12s5.374 12 12 12 12-5.374 12-12S18.626 0 12 0zm6.85 14.84c-.034.734-.15 1.235-.321 1.674a3.524 3.524 0 0 1-2.015 2.015c-.439.17-.94.287-1.673.32-.735.034-.97.042-2.84.042-1.872 0-2.107-.008-2.842-.042-.733-.033-1.234-.15-1.672-.32a3.375 3.375 0 0 1-1.221-.795 3.377 3.377 0 0 1-.795-1.22c-.17-.439-.287-.94-.32-1.673-.034-.735-.042-.97-.042-2.841 0-1.871.008-2.106.042-2.84.033-.734.15-1.235.32-1.674.173-.46.444-.876.795-1.22.344-.35.76-.622 1.22-.795.439-.17.94-.287 1.673-.32.735-.034.97-.042 2.841-.042 1.871 0 2.106.008 2.84.042.734.033 1.235.15 1.674.32.46.173.876.444 1.22.795.35.344.622.76.795 1.22.17.439.287.94.32 1.673.034.735.042.97.042 2.841 0 1.871-.008 2.106-.042 2.84z"/>
</symbol><symbol id="icon-vk" viewBox="0 0 24 24">
    <path d="M12 24c6.627 0 12-5.373 12-12S18.627 0 12 0 0 5.373 0 12s5.373 12 12 12z"/>
    <path fill-rule="evenodd" clip-rule="evenodd" d="M8.547 9.263h.942s.284-.031.43-.188c.133-.144.129-.414.129-.414s-.019-1.263.568-1.45c.578-.183 1.32 1.222 2.108 1.762.595.409 1.047.32 1.047.32l2.104-.03s1.101-.068.579-.933c-.043-.071-.304-.64-1.565-1.81-1.319-1.225-1.142-1.027.447-3.146.968-1.29 1.355-2.077 1.234-2.415-.115-.32-.827-.236-.827-.236l-2.37.015s-.175-.024-.305.054c-.127.076-.21.254-.21.254s-.374.998-.875 1.847c-1.055 1.792-1.476 1.886-1.649 1.775-.4-.26-.3-1.041-.3-1.597 0-1.736.263-2.46-.514-2.647C9.264.36 9.074.32 8.415.314c-.846-.01-1.561.002-1.966.2-.27.133-.478.427-.351.444.157.02.511.095.7.351.242.33.233 1.072.233 1.072s.14 2.044-.325 2.298c-.32.174-.758-.181-1.698-1.807-.482-.832-.846-1.752-.846-1.752s-.07-.172-.195-.264C3.815.744 3.602.709 3.602.709L1.351.723S1.013.733.889.88c-.11.13-.009.4-.009.4S2.643 5.406 4.64 7.484c1.83 1.905 3.908 1.78 3.908 1.78z"/>
</symbol></svg>